<svg width="24" height="24" xmlns="http://www.w3.org/2000/svg" version="1.0" preserveAspectRatio="xMidYMid meet">
 <g id="Layer_1">
  <title>Layer 1</title>
  <g>
   <title stroke="#fff" fill="#ffffff">ModelContextProtocol</title>
   <path stroke="#fff" fill="#ffffff" d="m15.68807,2.40195a2.588,2.588 0 0 0 -3.61,0l-9.626,9.44a0.863,0.863 0 0 1 -1.203,0a0.823,0.823 0 0 1 0,-1.18l9.626,-9.44a4.313,4.313 0 0 1 6.016,0a4.116,4.116 0 0 1 1.204,3.54a4.3,4.3 0 0 1 3.609,1.18l0.05,0.05a4.115,4.115 0 0 1 0,5.9l-8.706,8.537a0.274,0.274 0 0 0 0,0.393l1.788,1.754a0.823,0.823 0 0 1 0,1.18a0.863,0.863 0 0 1 -1.203,0l-1.788,-1.753a1.92,1.92 0 0 1 0,-2.754l8.706,-8.538a2.47,2.47 0 0 0 0,-3.54l-0.05,-0.049a2.588,2.588 0 0 0 -3.607,-0.003l-7.172,7.034l-0.002,0.002l-0.098,0.097a0.863,0.863 0 0 1 -1.204,0a0.823,0.823 0 0 1 0,-1.18l7.273,-7.133a2.47,2.47 0 0 0 -0.003,-3.537z"/>
   <path stroke="#fff" fill="#ffffff" d="m14.48507,4.76195a0.823,0.823 0 0 0 0,-1.18a0.863,0.863 0 0 0 -1.204,0l-7.119,6.982a4.115,4.115 0 0 0 0,5.9a4.314,4.314 0 0 0 6.016,0l7.12,-6.982a0.823,0.823 0 0 0 0,-1.18a0.863,0.863 0 0 0 -1.204,0l-7.119,6.982a2.588,2.588 0 0 1 -3.61,0a2.47,2.47 0 0 1 0,-3.54l7.12,-6.982z"/>
  </g>
 </g>

</svg>