<?xml version="1.0" standalone="no"?><!DOCTYPE svg PUBLIC "-//W3C//DTD SVG 1.1//EN" "http://www.w3.org/Graphics/SVG/1.1/DTD/svg11.dtd"><svg t="1779074643592" class="icon" viewBox="0 0 1024 1024" version="1.1" xmlns="http://www.w3.org/2000/svg" p-id="7131" xmlns:xlink="http://www.w3.org/1999/xlink" width="32" height="32"><path d="M611.5328 582.8096a38.4 38.4 0 0 1 0 54.272l-72.3968 72.448 81.5104 81.5104L512 899.584a256.0512 256.0512 0 0 1-332.544 25.344l-56.32 56.32a38.4 38.4 0 1 1-54.3232-54.272l56.2688-56.32a256 256 0 0 1 24.832-333.1072l108.6464-108.5952 81.408 81.408 72.448-72.3968a38.4 38.4 0 0 1 54.272 54.3232L394.3936 564.736l90.4704 90.4704 72.448-72.3968a38.4 38.4 0 0 1 54.272 0z m-407.2448 9.1136a179.2 179.2 0 1 0 253.44 253.44L512 791.04 258.56 537.6l-54.272 54.272zM955.392 93.9008a38.4 38.4 0 0 1 0 54.3232l-56.32 56.32a256.0512 256.0512 0 0 1-25.088 333.0048l-108.544 108.5952-362.0352-361.984 108.544-108.6464a256.0512 256.0512 0 0 1 332.7488-25.2416l56.32-56.32a38.4 38.4 0 0 1 54.3232 0zM819.712 229.888a179.2 179.2 0 0 0-253.44 0L512 284.1088l253.44 253.44 54.272-54.272a179.2 179.2 0 0 0 0-253.44z" p-id="7132" fill="#ffffff"></path></svg>