<?xml version="1.0" standalone="no"?><!DOCTYPE svg PUBLIC "-//W3C//DTD SVG 1.1//EN" "http://www.w3.org/Graphics/SVG/1.1/DTD/svg11.dtd"><svg t="1779074612828" class="icon" viewBox="0 0 1024 1024" version="1.1" xmlns="http://www.w3.org/2000/svg" p-id="6917" xmlns:xlink="http://www.w3.org/1999/xlink" width="32" height="32"><path d="M678.2976 583.68h-83.4048l-19.3536-57.1392H454.8608L435.5072 583.68H353.024L470.016 260.1984h91.2384l116.992 323.4816z m-202.752-117.9648h79.7696l-40.1408-118.4256-39.6288 118.4256z" p-id="6918" fill="#ffffff"></path><path d="M768 51.2a204.8 204.8 0 0 1 204.8 204.8v358.4a204.8 204.8 0 0 1-204.8 204.8h-230.4L256 972.8v-153.6h-38.4a166.4 166.4 0 0 1-166.1952-157.8496L51.2 652.8V256a204.8 204.8 0 0 1 204.8-204.8h512zM256 128A128 128 0 0 0 128 256v396.8c0 49.4592 40.1408 89.6 89.6 89.6H332.8v101.0176l185.1904-101.0176H768a128 128 0 0 0 128-128V256A128 128 0 0 0 768 128H256z" p-id="6919" fill="#ffffff"></path></svg>