<svg
	t="1780311407960"
	class="icon"
	viewBox="0 0 1024 1024"
	version="1.1"
	xmlns="http://www.w3.org/2000/svg"
	p-id="5396"
	xmlns:xlink="http://www.w3.org/1999/xlink"
	width="16"
	height="16"
><path
		d="M367.093333 425.44m5.333334 0l64 0q5.333333 0 5.333333 5.333333l0 294.933334q0 5.333333-5.333333 5.333333l-64 0q-5.333333 0-5.333334-5.333333l0-294.933334q0-5.333333 5.333334-5.333333Z"
		p-id="5397"
		fill="#f38181"
	/><path
		d="M582.24 425.44m5.333333 0l64 0q5.333333 0 5.333334 5.333333l0 294.933334q0 5.333333-5.333334 5.333333l-64 0q-5.333333 0-5.333333-5.333333l0-294.933334q0-5.333333 5.333333-5.333333Z"
		p-id="5398"
		fill="#f38181"
	/><path
		d="M917.333333 244.533333a5.333333 5.333333 0 0 0-5.333333-5.333333H112a5.333333 5.333333 0 0 0-5.333333 5.333333v64a5.333333 5.333333 0 0 0 5.333333 5.333334h88.32a5.333333 5.333333 0 0 1 5.333333 5.333333V912a5.333333 5.333333 0 0 0 5.333334 5.333333h601.973333a5.333333 5.333333 0 0 0 5.333333-5.333333V319.2a5.333333 5.333333 0 0 1 5.333334-5.333333H912a5.333333 5.333333 0 0 0 5.333333-5.333334zM738.293333 842.666667H285.706667a5.333333 5.333333 0 0 1-5.333334-5.333334V319.2a5.333333 5.333333 0 0 1 5.333334-5.333333h452.586666a5.333333 5.333333 0 0 1 5.333334 5.333333V837.333333a5.333333 5.333333 0 0 1-5.333334 5.333334z"
		p-id="5399"
		fill="#f38181"
	/><path
		d="M320 106.666667m5.333333 0l373.333334 0q5.333333 0 5.333333 5.333333l0 64q0 5.333333-5.333333 5.333333l-373.333334 0q-5.333333 0-5.333333-5.333333l0-64q0-5.333333 5.333333-5.333333Z"
		p-id="5400"
		fill="#f38181"
	/></svg>
