<svg
	t="1780305806787"
	class="icon"
	viewBox="0 0 1024 1024"
	version="1.1"
	xmlns="http://www.w3.org/2000/svg"
	p-id="7491"
	xmlns:xlink="http://www.w3.org/1999/xlink"
	width="16"
	height="16"
><path
		d="M234.688 192a64 64 0 1 0 0 128 64 64 0 0 0 0-128zM85.312 256a149.312 149.312 0 1 1 199.104 140.8c13.184 30.144 43.264 51.2 78.272 51.2h298.624A170.688 170.688 0 0 1 832 618.688v6.144a149.376 149.376 0 1 1-85.312 0v-6.144c0-47.168-38.208-85.376-85.376-85.376H362.688c-31.104 0-60.288-8.32-85.376-22.784v114.304a149.376 149.376 0 1 1-85.312 0V399.168A149.376 149.376 0 0 1 85.312 256z m704 448a64 64 0 1 0 0 128 64 64 0 0 0 0-128z m-554.624 0a64 64 0 1 0 0 128 64 64 0 0 0 0-128z"
		p-id="7492"
		fill="#ffffff"
	/></svg>
