<svg
	t="1780306036634"
	class="icon"
	viewBox="0 0 1024 1024"
	version="1.1"
	xmlns="http://www.w3.org/2000/svg"
	p-id="13771"
	xmlns:xlink="http://www.w3.org/1999/xlink"
	width="16"
	height="16"
><path
		d="M971.264 459.264L564.736 52.736a74.524444 74.524444 0 0 0-105.472 0L52.736 459.264a74.524444 74.524444 0 0 0 0 105.472l406.528 406.528a74.524444 74.524444 0 0 0 105.472 0l406.528-406.528a74.524444 74.524444 0 0 0 0-105.472z m-190.464 83.569778l-237.966222 238.023111a43.576889 43.576889 0 0 1-61.610667 0L243.2 542.833778a43.576889 43.576889 0 0 1 0-61.610667l238.023111-238.023111a43.576889 43.576889 0 0 1 61.610667 0l237.966222 238.023111a43.576889 43.576889 0 0 1 0 61.610667z"
		fill="#ffffff"
		p-id="13772"
	/><path
		d="M525.653333 349.752889a19.342222 19.342222 0 0 0-27.306666 0L349.752889 498.346667a19.342222 19.342222 0 0 0 0 27.249777l148.593778 148.593778a19.342222 19.342222 0 0 0 27.306666 0l148.593778-148.593778a19.342222 19.342222 0 0 0 0-27.249777L525.653333 349.752889z"
		fill="#ffffff"
		p-id="13773"
	/></svg>
