<svg
	t="1780305672305"
	class="icon"
	viewBox="0 0 1024 1024"
	version="1.1"
	xmlns="http://www.w3.org/2000/svg"
	p-id="5416"
	xmlns:xlink="http://www.w3.org/1999/xlink"
	width="16"
	height="16"
><path
		d="M917.333333 149.333333a5.333333 5.333333 0 0 0-5.333333-5.333333H112a5.333333 5.333333 0 0 0-5.333333 5.333333v64a5.333333 5.333333 0 0 0 5.333333 5.333334h800a5.333333 5.333333 0 0 0 5.333333-5.333334zM106.666667 736v64a5.333333 5.333333 0 0 0 5.333333 5.333333h469.333333a5.333333 5.333333 0 0 0 5.333334-5.333333v-64a5.333333 5.333333 0 0 0-5.333334-5.333333H112a5.333333 5.333333 0 0 0-5.333333 5.333333zM693.333333 736v64a4.96 4.96 0 0 0 4.373334 5.333333h215.253333a4.96 4.96 0 0 0 4.373333-5.333333v-64a4.96 4.96 0 0 0-4.373333-5.333333h-215.253333a4.96 4.96 0 0 0-4.373334 5.333333z"
		p-id="5417"
		fill="#ffffff"
	/><path
		d="M773.333333 880h64a4.96 4.96 0 0 0 5.333334-4.373333v-215.253334a4.96 4.96 0 0 0-5.333334-4.373333h-64a4.96 4.96 0 0 0-5.333333 4.373333v215.253334a4.96 4.96 0 0 0 5.333333 4.373333zM512 437.333333H112a5.333333 5.333333 0 0 0-5.333333 5.333334v64a5.333333 5.333333 0 0 0 5.333333 5.333333h800a5.333333 5.333333 0 0 0 5.333333-5.333333V442.666667a5.333333 5.333333 0 0 0-5.333333-5.333334z"
		p-id="5418"
		fill="#ffffff"
	/></svg>
