<svg
	t="1780305898976"
	class="icon"
	viewBox="0 0 1024 1024"
	version="1.1"
	xmlns="http://www.w3.org/2000/svg"
	p-id="11725"
	xmlns:xlink="http://www.w3.org/1999/xlink"
	width="16"
	height="16"
><path
		d="M896 277.333333a42.666667 42.666667 0 0 1 42.666667 42.666667v597.333333a42.666667 42.666667 0 0 1-42.666667 42.666667H298.666667a42.666667 42.666667 0 0 1-42.666667-42.666667v-128h85.333333v85.333334h512v-512h-256v-85.333334h298.666667z m-552.533333 27.136l392.234666 392.192-60.373333 60.373334L283.136 364.8 343.466667 304.469333zM725.333333 64a42.666667 42.666667 0 0 1 42.666667 42.666667v128h-85.333333v-85.333334H170.666667v512h256v85.333334H128a42.666667 42.666667 0 0 1-42.666667-42.666667v-597.333333a42.666667 42.666667 0 0 1 42.666667-42.666667h597.333333z"
		fill="#ffffff"
		p-id="11726"
	/></svg>
