<?xml version="1.0" standalone="no"?><!DOCTYPE svg PUBLIC "-//W3C//DTD SVG 1.1//EN" "http://www.w3.org/Graphics/SVG/1.1/DTD/svg11.dtd"><svg t="1779074650521" class="icon" viewBox="0 0 1024 1024" version="1.1" xmlns="http://www.w3.org/2000/svg" p-id="7344" xmlns:xlink="http://www.w3.org/1999/xlink" width="32" height="32"><path d="M742.4 64A192 192 0 0 1 934.4 256v324.2496a38.4 38.4 0 0 1-76.8 0V256a115.2 115.2 0 0 0-115.2-115.2h-460.8A115.2 115.2 0 0 0 166.4 256v512a115.2 115.2 0 0 0 115.2 115.2H512a38.4 38.4 0 0 1 0 76.8H281.6A192 192 0 0 1 89.6 768V256A192 192 0 0 1 281.6 64h460.8z" p-id="7345" fill="#ffffff"></path><path d="M749.6704 600.064a20.48 20.48 0 0 1 36.6592 0l46.6944 93.696a20.48 20.48 0 0 0 9.216 9.216l93.696 46.6944a20.48 20.48 0 0 1 0 36.6592l-93.696 46.6944a20.48 20.48 0 0 0-9.216 9.216l-46.6944 93.696a20.48 20.48 0 0 1-36.6592 0l-46.6944-93.696a20.48 20.48 0 0 0-9.216-9.216l-93.696-46.6944a20.48 20.48 0 0 1 0-36.6592l93.696-46.6944a20.48 20.48 0 0 0 9.216-9.216l46.6944-93.696zM460.8 576a38.4 38.4 0 0 1 0 76.8H358.4a38.4 38.4 0 0 1 0-76.8h102.4zM665.6 371.2a38.4 38.4 0 0 1 0 76.8H358.4a38.4 38.4 0 0 1 0-76.8h307.2z" p-id="7346" fill="#ffffff"></path></svg>