<?xml version="1.0" standalone="no"?><!DOCTYPE svg PUBLIC "-//W3C//DTD SVG 1.1//EN" "http://www.w3.org/Graphics/SVG/1.1/DTD/svg11.dtd"><svg t="1779074560836" class="icon" viewBox="0 0 1024 1024" version="1.1" xmlns="http://www.w3.org/2000/svg" p-id="6539" xmlns:xlink="http://www.w3.org/1999/xlink" width="32" height="32"><path d="M454.144 97.6896c23.3472-50.5856 97.8944-48.896 117.8624 5.0688l35.1232 94.8224a371.2 371.2 0 0 0 219.2896 219.2896l94.8736 35.1232c55.6544 20.6336 55.6544 99.328 0 120.0128l-94.8736 35.072a371.2 371.2 0 0 0-219.2896 219.2896l-35.1232 94.8736c-20.5824 55.7056-99.328 55.7056-119.9616 0l-35.1232-94.8736a371.2512 371.2512 0 0 0-219.2896-219.2896l-94.8736-35.072C47.104 551.3216 47.104 472.576 102.7584 451.9936l145.408-53.8112a38.4 38.4 0 0 1 26.624 72.0384L161.792 512l62.464 23.04a448 448 0 0 1 264.6016 264.704L512 862.1568l23.1424-62.464a448 448 0 0 1 264.6016-264.6016L862.208 512l-62.464-23.0912a448 448 0 0 1-264.6016-264.704L512 161.792l-41.728 112.9984-15.616 42.0352a38.4 38.4 0 0 1-71.9872-26.624l69.376-187.392 2.048-5.12z" p-id="6540" fill="#ffffff"></path><path d="M487.424 399.1552a26.112 26.112 0 0 1 49.1008 0c15.1552 40.9088 47.4112 73.216 88.3712 88.32a26.112 26.112 0 0 1 0 49.0496c-40.96 15.1552-73.216 47.4112-88.3712 88.3712a26.112 26.112 0 0 1-49.0496 0 149.5552 149.5552 0 0 0-88.3712-88.3712 26.112 26.112 0 0 1 0-49.0496c40.96-15.1552 73.216-47.4112 88.3712-88.32z" p-id="6541" fill="#ffffff"></path></svg>