<?xml version="1.0" standalone="no"?><!DOCTYPE svg PUBLIC "-//W3C//DTD SVG 1.1//EN" "http://www.w3.org/Graphics/SVG/1.1/DTD/svg11.dtd"><svg t="1779597892826" class="icon" viewBox="0 0 1024 1024" version="1.1" xmlns="http://www.w3.org/2000/svg" p-id="6622" xmlns:xlink="http://www.w3.org/1999/xlink" width="16" height="16"><path d="M448 592a48 48 0 0 0-48 48v76l-123.32-123.2a16 16 0 0 1-4.68-11.32V391.76a144 144 0 1 0-96 0v189.72a111.24 111.24 0 0 0 32.8 79.2L332 784H256a48 48 0 0 0 0 96h192a48 48 0 0 0 48-48v-192a48 48 0 0 0-48-48zM224 208a48 48 0 1 1-48 48 48 48 0 0 1 48-48z m624 424.24v-189.72a111.24 111.24 0 0 0-32.8-79.2L692 240h76a48 48 0 0 0 0-96h-192a48 48 0 0 0-48 48v192a48 48 0 0 0 96 0V308l123.32 123.32a16 16 0 0 1 4.68 11.32v189.72a144 144 0 1 0 96 0zM800 816a48 48 0 1 1 48-48 48 48 0 0 1-48 48z" p-id="6623" fill="#ffffff"></path></svg>