<?xml version="1.0" standalone="no"?><!DOCTYPE svg PUBLIC "-//W3C//DTD SVG 1.1//EN" "http://www.w3.org/Graphics/SVG/1.1/DTD/svg11.dtd"><svg t="1779170259994" class="icon" viewBox="0 0 1024 1024" version="1.1" xmlns="http://www.w3.org/2000/svg" p-id="9714" width="16" height="16" xmlns:xlink="http://www.w3.org/1999/xlink"><path d="M873.855454 150.399906A511.42368 511.42368 0 0 1 512.19168 1023.99936H182.783886A182.975886 182.975886 0 0 1 0 841.279474V511.99968a511.61568 511.61568 0 0 1 873.855454-361.599774zM512.19168 84.735947A427.519733 427.519733 0 0 0 84.671947 511.99968v329.279794a98.239939 98.239939 0 0 0 98.111939 98.047939h329.407794a427.391733 427.391733 0 0 0 10.303993-854.527466l-10.303993-0.128z" p-id="9715" fill="#ffffff"></path><path d="M366.719771 311.039806L191.99988 767.99952h79.99995l41.599974-114.559928h191.35988L546.559658 767.99952h79.99995L451.839718 311.039806H366.719771z m-30.719981 280.959824l72.319955-200.319875h2.559998l71.679955 200.319875H335.99979zM671.35958 311.039806V767.99952h74.879954V311.039806z" p-id="9716" fill="#ffffff"></path></svg>