<svg
	t="1780188620978"
	class="icon"
	viewBox="0 0 1024 1024"
	version="1.1"
	xmlns="http://www.w3.org/2000/svg"
	p-id="5407"
	xmlns:xlink="http://www.w3.org/1999/xlink"
	width="16"
	height="16"
><path
		d="M780.352 660.32a377.376 377.376 0 0 0 108.864-265.632C889.216 185.824 720.32 16.48 511.968 16.48S134.72 185.824 134.72 394.688c0 103.552 41.6 197.344 108.896 265.632l-107.232 232.992 0.128 0.192a20.992 20.992 0 0 0 19.168 29.408c0.544 0 1.024-0.288 1.568-0.32l0.256 0.32 124.256-25.28 82.816 111.776 0.448 0.704 2.752 4.512 0.256-0.032c3.84 4.64 9.408 7.744 15.904 7.744 9.216 0 16.832-6.08 19.616-14.4l98.56-235.552c3.328 0.096 6.528 0.512 9.856 0.512s6.56-0.416 9.856-0.512l89.312 235.584a20.8 20.8 0 0 0 19.616 14.368 20.672 20.672 0 0 0 17.76-10.496h0.096l0.896-1.472c0.16-0.352 0.448-0.608 0.608-0.992l72.384-111.744 142.208 24.672 0.768-0.96c0.928 0.128 1.792 0.576 2.784 0.576a20.992 20.992 0 0 0 20.96-21.024c0-3.2-0.832-6.176-2.144-8.896l-106.752-231.712z m-40.576-297.248l-0.768 0.8-98.816 96.576 22.144 129.44 2.208 13.088s-0.448 3.04-2.176 6.528a18.816 18.816 0 0 1-3.68 4.992c-0.544 0.544-0.992 1.088-1.568 1.568-0.192 0.16-0.256 0.32-0.448 0.448a12.864 12.864 0 0 1-2.624 1.44 19.424 19.424 0 0 1-9.856 2.912c-1.856 0-3.488-0.608-5.184-1.056a55.936 55.936 0 0 1-2.784-0.256l0.224 0.032-124.608-65.696-124.608 65.696a19.776 19.776 0 0 1-6.336 1.28 20.448 20.448 0 0 1-12.928-4.896c-0.32-0.192-0.672-0.224-0.96-0.448-0.224-0.16-0.352-0.384-0.544-0.576l-0.64-0.672a14.272 14.272 0 0 1-3.488-5.184 20.96 20.96 0 0 1-2.368-9.248c0-1.152 0.48-2.144 0.64-3.264 0.192-3.936 0.832-6.88 0.832-6.88l22.112-129.312-100.864-98.592a20.704 20.704 0 0 1-4.352-12.192c0-8.288 4.896-15.296 11.84-18.72l0.256-1.056 142.112-20.672 61.536-124.96c3.616-6.208 10.08-10.592 17.792-10.592s14.176 4.384 17.792 10.592l1.792 3.616 59.712 121.312 142.624 20.768c6.944 3.424 11.84 10.432 11.84 18.688a20.8 20.8 0 0 1-5.856 14.4z"
		fill="#f4ea2a"
		p-id="5408"
	/></svg>
